<?xml version="1.0" encoding="UTF-8"?>
<svg xmlns="http://www.w3.org/2000/svg" xmlns:xlink="http://www.w3.org/1999/xlink" width="225px" height="300px" viewBox="0 0 225 300" version="1.1">
<defs>
<clipPath id="clip1">
  <path d="M 2.554688 0 L 222.4375 0 L 222.4375 300 L 2.554688 300 Z M 2.554688 0 "/>
</clipPath>
</defs>
<g id="surface1">
<g clip-path="url(#clip1)" clip-rule="nonzero">
<path style=" stroke:none;fill-rule:nonzero;fill:rgb(100%,100%,100%);fill-opacity:1;" d="M 202.839844 25.15625 C 189.902344 21.414062 176.203125 18.503906 162.117188 16.445312 L 162.117188 3.246094 C 147.144531 1.171875 130.3125 0 112.496094 0 C 94.679688 0 77.851562 1.171875 62.878906 3.246094 L 62.878906 16.453125 C 48.789062 18.507812 35.097656 21.414062 22.15625 25.160156 L 2.554688 30.84375 L 2.554688 169.414062 C 2.558594 187.707031 8.347656 205.988281 19.765625 223.746094 C 28.519531 237.355469 40.613281 250.691406 55.710938 263.390625 C 68.902344 274.488281 82.050781 283.082031 90.765625 288.335938 C 100.039062 293.929688 106.285156 296.996094 106.992188 297.339844 L 112.496094 300 L 118.023438 297.328125 C 118.710938 296.996094 124.957031 293.929688 134.234375 288.335938 C 142.941406 283.082031 156.089844 274.488281 169.285156 263.390625 C 184.382812 250.691406 196.476562 237.355469 205.230469 223.742188 C 216.648438 205.984375 222.4375 187.699219 222.4375 169.402344 L 222.4375 30.84375 Z M 202.839844 25.15625 "/>
</g>
<path style=" stroke:none;fill-rule:nonzero;fill:rgb(0%,66.666669%,82.352942%);fill-opacity:1;" d="M 130.777344 212.648438 L 130.777344 216.769531 L 126.652344 212.648438 Z M 130.777344 212.648438 "/>
<path style=" stroke:none;fill-rule:nonzero;fill:rgb(0%,66.666669%,82.352942%);fill-opacity:1;" d="M 102.96875 212.648438 L 102.96875 216.769531 L 98.847656 212.648438 Z M 102.96875 212.648438 "/>
<path style=" stroke:none;fill-rule:nonzero;fill:rgb(0%,66.666669%,82.352942%);fill-opacity:1;" d="M 83.097656 219.828125 C 83.695312 219.207031 84.414062 218.734375 85.257812 218.40625 C 86.101562 218.078125 87.023438 217.914062 88.03125 217.914062 C 89.175781 217.914062 90.230469 218.160156 91.191406 218.652344 C 92.148438 219.140625 93.027344 219.855469 93.824219 220.792969 L 98.246094 216.789062 C 97.050781 215.269531 95.558594 214.117188 93.769531 213.332031 C 91.976562 212.550781 89.949219 212.15625 87.679688 212.15625 C 85.734375 212.15625 83.945312 212.464844 82.308594 213.085938 C 80.667969 213.707031 79.242188 214.585938 78.023438 215.71875 C 76.804688 216.855469 75.859375 218.207031 75.179688 219.773438 C 74.5 221.339844 74.160156 223.0625 74.160156 224.933594 C 74.160156 226.808594 74.5 228.527344 75.179688 230.097656 C 75.855469 231.664062 76.804688 233.015625 78.023438 234.148438 C 79.238281 235.285156 80.667969 236.164062 82.308594 236.78125 C 83.945312 237.402344 85.734375 237.710938 87.679688 237.710938 C 89.949219 237.710938 91.976562 237.316406 93.769531 236.519531 C 95.558594 235.722656 97.050781 234.566406 98.246094 233.042969 L 93.824219 229.042969 C 93.027344 230.003906 92.148438 230.726562 91.191406 231.21875 C 90.230469 231.710938 89.175781 231.957031 88.03125 231.957031 C 87.023438 231.957031 86.101562 231.792969 85.257812 231.464844 C 84.414062 231.136719 83.695312 230.664062 83.097656 230.042969 C 82.5 229.425781 82.03125 228.683594 81.691406 227.816406 C 81.351562 226.949219 81.183594 225.988281 81.183594 224.9375 C 81.183594 223.882812 81.351562 222.925781 81.691406 222.058594 C 82.03125 221.191406 82.5 220.449219 83.097656 219.828125 Z M 83.097656 219.828125 "/>
<path style=" stroke:none;fill-rule:nonzero;fill:rgb(0%,66.666669%,82.352942%);fill-opacity:1;" d="M 117.097656 226.09375 C 117.097656 228.175781 116.695312 229.675781 115.886719 230.585938 C 115.078125 231.5 113.949219 231.953125 112.496094 231.953125 C 111.046875 231.953125 109.914062 231.5 109.089844 230.585938 C 108.273438 229.675781 107.863281 228.175781 107.863281 226.09375 L 107.863281 212.648438 L 100.914062 212.648438 L 100.914062 226.304688 C 100.914062 229.929688 101.925781 232.738281 103.949219 234.726562 C 105.972656 236.71875 108.796875 237.710938 112.425781 237.710938 C 116.054688 237.710938 118.855469 236.71875 120.902344 234.726562 C 122.953125 232.738281 123.976562 229.929688 123.976562 226.304688 L 123.976562 212.648438 L 117.097656 212.648438 Z M 117.097656 226.09375 "/>
<path style=" stroke:none;fill-rule:nonzero;fill:rgb(0%,66.666669%,82.352942%);fill-opacity:1;" d="M 149.515625 216.878906 C 148.636719 215.511719 147.378906 214.460938 145.742188 213.738281 C 144.101562 213.011719 142.160156 212.648438 139.914062 212.648438 L 128.714844 212.648438 L 128.714844 237.21875 L 135.667969 237.21875 L 135.667969 230.796875 L 139.914062 230.796875 C 142.160156 230.796875 144.101562 230.429688 145.742188 229.691406 C 147.378906 228.953125 148.636719 227.910156 149.515625 226.566406 C 150.394531 225.21875 150.832031 223.597656 150.832031 221.703125 C 150.832031 219.808594 150.394531 218.246094 149.515625 216.875 Z M 142.753906 224.355469 C 142.03125 224.976562 140.941406 225.285156 139.492188 225.285156 L 135.667969 225.285156 L 135.667969 218.125 L 139.492188 218.125 C 140.941406 218.125 142.03125 218.445312 142.753906 219.089844 C 143.480469 219.734375 143.84375 220.605469 143.84375 221.707031 C 143.84375 222.804688 143.484375 223.734375 142.753906 224.355469 Z M 142.753906 224.355469 "/>
<path style=" stroke:none;fill-rule:nonzero;fill:rgb(0%,66.666669%,82.352942%);fill-opacity:1;" d="M 196 166.503906 C 196 180.449219 191.609375 194.503906 182.949219 208.265625 C 178.375 215.535156 172.605469 222.738281 165.722656 229.785156 C 174.023438 221.882812 180.894531 213.773438 186.21875 205.578125 C 195.285156 191.628906 199.878906 177.386719 199.878906 163.253906 L 199.878906 70.542969 L 196 73.867188 Z M 196 166.503906 "/>
<path style=" stroke:none;fill-rule:nonzero;fill:rgb(0%,16.078432%,42.745098%);fill-opacity:1;" d="M 204.617188 60.867188 L 204.617188 164.144531 C 204.617188 178.988281 199.773438 193.941406 190.21875 208.589844 C 182.632812 220.226562 172.0625 231.695312 158.816406 242.6875 C 147.0625 252.4375 135.320312 260 127.539062 264.632812 C 119.097656 269.652344 113.515625 272.332031 113.28125 272.441406 L 112.496094 272.816406 L 112.496094 288.980469 L 113.339844 288.570312 C 113.59375 288.449219 119.605469 285.523438 128.699219 280.039062 C 137.082031 274.980469 149.730469 266.71875 162.390625 256.066406 C 176.660156 244.0625 188.042969 231.535156 196.21875 218.824219 C 206.507812 202.824219 211.726562 186.492188 211.726562 170.277344 L 211.734375 55 Z M 204.617188 60.867188 "/>
<path style=" stroke:none;fill-rule:nonzero;fill:rgb(0%,16.078432%,42.745098%);fill-opacity:1;" d="M 195.851562 40.941406 L 201.035156 36.667969 L 199.859375 36.324219 C 186.636719 32.496094 172.609375 29.546875 158.171875 27.554688 C 156.320312 27.300781 154.4375 27.109375 152.566406 26.882812 L 151.789062 31.78125 C 153.238281 31.96875 154.703125 32.117188 156.144531 32.324219 C 169.898438 34.277344 183.257812 37.179688 195.851562 40.9375 Z M 195.851562 40.941406 "/>
<path style=" stroke:none;fill-rule:nonzero;fill:rgb(0%,66.666669%,82.352942%);fill-opacity:1;" d="M 28.996094 166.503906 C 28.996094 180.449219 33.386719 194.503906 42.050781 208.265625 C 46.621094 215.535156 52.390625 222.738281 59.277344 229.785156 C 50.972656 221.882812 44.101562 213.773438 38.777344 205.578125 C 29.714844 191.628906 25.117188 177.386719 25.117188 163.253906 L 25.117188 70.542969 L 28.996094 73.867188 Z M 28.996094 166.503906 "/>
<path style=" stroke:none;fill-rule:nonzero;fill:rgb(0%,16.078432%,42.745098%);fill-opacity:1;" d="M 20.378906 60.867188 L 20.378906 164.144531 C 20.378906 178.988281 25.222656 193.941406 34.777344 208.589844 C 42.367188 220.226562 52.933594 231.695312 66.179688 242.6875 C 77.933594 252.4375 89.675781 260 97.457031 264.632812 C 105.898438 269.652344 111.480469 272.332031 111.71875 272.441406 L 112.5 272.816406 L 112.5 288.980469 L 111.65625 288.570312 C 111.402344 288.449219 105.390625 285.523438 96.296875 280.039062 C 87.917969 274.980469 75.265625 266.71875 62.609375 256.066406 C 48.335938 244.0625 36.953125 231.535156 28.78125 218.824219 C 18.488281 202.824219 13.269531 186.492188 13.269531 170.277344 L 13.265625 55 Z M 20.378906 60.867188 "/>
<path style=" stroke:none;fill-rule:nonzero;fill:rgb(0%,16.078432%,42.745098%);fill-opacity:1;" d="M 29.140625 40.941406 L 23.957031 36.667969 L 25.136719 36.324219 C 38.359375 32.496094 52.382812 29.546875 66.824219 27.554688 C 68.675781 27.300781 70.558594 27.109375 72.429688 26.882812 L 73.207031 31.78125 C 71.757812 31.96875 70.292969 32.117188 68.851562 32.324219 C 55.097656 34.277344 41.738281 37.179688 29.140625 40.9375 Z M 29.140625 40.941406 "/>
<path style=" stroke:none;fill-rule:nonzero;fill:rgb(0%,16.078432%,42.745098%);fill-opacity:1;" d="M 65.171875 57.554688 C 64.304688 56.972656 63.742188 55.933594 63.386719 53.105469 L 62.929688 49.496094 C 62.578125 46.667969 62.867188 45.519531 63.5625 44.738281 C 64.101562 44.136719 64.925781 43.753906 65.960938 43.625 C 67.050781 43.488281 67.933594 43.695312 68.539062 44.113281 C 69.402344 44.699219 69.972656 45.757812 70.285156 48.253906 L 70.292969 48.292969 L 67.773438 48.609375 L 67.769531 48.570312 C 67.558594 46.910156 67.421875 45.800781 66.25 45.949219 C 65.058594 46.097656 65.199219 47.207031 65.378906 48.632812 L 65.96875 53.335938 C 66.15625 54.816406 66.289062 55.867188 67.476562 55.722656 C 68.6875 55.570312 68.554688 54.515625 68.296875 52.46875 L 68.292969 52.449219 L 70.808594 52.132812 L 70.8125 52.152344 C 71.171875 55 70.859375 56.148438 70.164062 56.929688 C 69.625 57.53125 68.804688 57.914062 67.765625 58.042969 C 66.734375 58.171875 65.839844 58.007812 65.167969 57.554688 Z M 65.171875 57.554688 "/>
<path style=" stroke:none;fill-rule:nonzero;fill:rgb(0%,16.078432%,42.745098%);fill-opacity:1;" d="M 78.59375 42.503906 L 78.714844 43.929688 L 79.800781 55.0625 L 79.957031 56.492188 L 77.453125 56.734375 L 77.335938 55.304688 L 76.871094 50.550781 L 74.445312 50.785156 L 74.90625 55.539062 L 75.070312 56.96875 L 72.542969 57.214844 L 72.425781 55.785156 L 71.339844 44.652344 L 71.179688 43.226562 L 73.707031 42.980469 L 73.824219 44.410156 L 74.226562 48.558594 L 76.65625 48.320312 L 76.25 44.175781 L 76.089844 42.746094 Z M 78.59375 42.503906 "/>
<path style=" stroke:none;fill-rule:nonzero;fill:rgb(0%,16.078432%,42.745098%);fill-opacity:1;" d="M 83.257812 56.234375 L 80.6875 56.417969 L 82.203125 42.210938 L 85.617188 41.960938 L 89.160156 55.804688 L 86.628906 55.988281 L 85.953125 53.160156 L 83.5 53.335938 Z M 83.691406 51.054688 L 85.4375 50.929688 L 84.582031 47.285156 C 84.433594 46.625 84.273438 45.726562 84.199219 45.242188 L 84.082031 45.25 C 84.09375 45.742188 84.042969 46.652344 83.992188 47.324219 Z M 83.691406 51.054688 "/>
<path style=" stroke:none;fill-rule:nonzero;fill:rgb(0%,16.078432%,42.745098%);fill-opacity:1;" d="M 89.9375 54.316406 L 89.441406 43.15625 L 89.359375 41.726562 L 92.792969 41.570312 L 94.535156 48.492188 C 94.675781 49.015625 94.808594 49.816406 94.871094 50.34375 L 94.953125 50.339844 C 94.988281 49.808594 95.027344 49 95.121094 48.464844 L 96.261719 41.417969 L 99.660156 41.265625 L 99.703125 42.699219 L 100.195312 53.859375 L 100.28125 55.289062 L 98.007812 55.390625 L 97.960938 53.957031 L 97.660156 47.171875 C 97.632812 46.605469 97.65625 45.816406 97.65625 45.304688 L 97.558594 45.3125 C 97.523438 45.824219 97.457031 46.59375 97.367188 47.148438 L 96.066406 55.480469 L 94.183594 55.566406 L 92.148438 47.378906 C 92.007812 46.835938 91.890625 46.074219 91.792969 45.566406 L 91.710938 45.570312 C 91.753906 46.078125 91.828125 46.867188 91.855469 47.433594 L 92.15625 54.21875 L 92.238281 55.652344 L 89.980469 55.75 L 89.9375 54.320312 Z M 89.9375 54.316406 "/>
<path style=" stroke:none;fill-rule:nonzero;fill:rgb(0%,16.078432%,42.745098%);fill-opacity:1;" d="M 101.964844 53.839844 L 101.777344 42.679688 L 101.734375 41.246094 L 105.265625 41.191406 C 108.40625 41.136719 109.199219 42.988281 109.238281 45.300781 L 109.238281 45.34375 C 109.277344 47.65625 108.542969 49.535156 105.402344 49.589844 L 104.382812 49.605469 L 104.453125 53.800781 L 104.496094 55.234375 L 101.964844 55.277344 L 101.960938 53.84375 Z M 105.050781 47.394531 C 106.40625 47.371094 106.6875 46.5 106.667969 45.382812 L 106.667969 45.34375 C 106.648438 44.226562 106.339844 43.367188 104.984375 43.390625 L 104.28125 43.402344 L 104.347656 47.402344 Z M 105.050781 47.394531 "/>
<path style=" stroke:none;fill-rule:nonzero;fill:rgb(0%,16.078432%,42.745098%);fill-opacity:1;" d="M 112.773438 41.117188 L 112.753906 42.550781 L 112.785156 53.710938 L 112.808594 55.140625 L 110.277344 55.148438 L 110.296875 53.714844 L 110.265625 42.554688 L 110.242188 41.125 Z M 112.773438 41.117188 "/>
<path style=" stroke:none;fill-rule:nonzero;fill:rgb(0%,16.078432%,42.745098%);fill-opacity:1;" d="M 115.671875 54.582031 C 114.898438 53.882812 114.480469 52.777344 114.519531 49.933594 L 114.574219 46.304688 C 114.613281 43.460938 115.058594 42.367188 115.855469 41.695312 C 116.464844 41.171875 117.335938 40.910156 118.355469 40.921875 C 119.390625 40.9375 120.253906 41.222656 120.855469 41.761719 C 121.628906 42.460938 122.046875 43.566406 122.003906 46.410156 L 121.957031 50.039062 C 121.917969 52.882812 121.472656 53.976562 120.675781 54.652344 C 120.058594 55.171875 119.191406 55.433594 118.15625 55.421875 C 117.132812 55.40625 116.273438 55.121094 115.671875 54.582031 Z M 119.414062 50.550781 L 119.480469 45.824219 C 119.503906 44.375 119.515625 43.273438 118.320312 43.257812 C 117.148438 43.242188 117.128906 44.339844 117.109375 45.789062 L 117.046875 50.519531 C 117.023438 51.96875 117.007812 53.070312 118.183594 53.085938 C 119.382812 53.105469 119.394531 52.003906 119.417969 50.550781 Z M 119.414062 50.550781 "/>
<path style=" stroke:none;fill-rule:nonzero;fill:rgb(0%,16.078432%,42.745098%);fill-opacity:1;" d="M 126.507812 41.347656 L 128.792969 47.703125 C 129.058594 48.441406 129.195312 48.957031 129.3125 49.453125 L 129.394531 49.453125 C 129.375 48.945312 129.34375 48.175781 129.363281 47.628906 L 129.550781 42.898438 L 129.585938 41.464844 L 132.035156 41.5625 L 131.960938 42.992188 L 131.527344 54.15625 L 131.492188 55.585938 L 129.214844 55.5 L 126.6875 48.308594 C 126.402344 47.566406 126.265625 47.050781 126.125 46.554688 L 126.046875 46.550781 C 126.066406 47.0625 126.09375 47.832031 126.070312 48.378906 L 125.859375 53.933594 L 125.820312 55.367188 L 123.367188 55.269531 L 123.445312 53.839844 L 123.878906 42.679688 L 123.917969 41.246094 L 126.503906 41.347656 Z M 126.507812 41.347656 "/>
<path style=" stroke:none;fill-rule:nonzero;fill:rgb(0%,16.078432%,42.745098%);fill-opacity:1;" d="M 135.09375 51.886719 C 135.246094 53.195312 135.808594 53.722656 136.648438 53.773438 C 137.496094 53.824219 137.976562 53.363281 138.019531 52.636719 C 138.070312 51.855469 137.605469 51.078125 136.535156 50.183594 L 135.300781 49.164062 C 133.820312 47.929688 133.230469 46.554688 133.324219 45.085938 C 133.457031 42.910156 135.042969 41.46875 137.355469 41.609375 C 139.492188 41.742188 140.652344 43.113281 140.832031 45.328125 L 138.359375 45.511719 C 138.277344 44.5625 137.917969 43.988281 137.136719 43.941406 C 136.386719 43.894531 135.925781 44.398438 135.878906 45.125 C 135.824219 46.007812 136.417969 46.671875 137.390625 47.480469 L 138.609375 48.480469 C 140.015625 49.652344 140.675781 51.066406 140.582031 52.65625 C 140.441406 54.910156 138.84375 56.253906 136.492188 56.109375 C 134.160156 55.96875 132.828125 54.46875 132.640625 52.074219 L 135.097656 51.890625 Z M 135.09375 51.886719 "/>
<path style=" stroke:none;fill-rule:nonzero;fill:rgb(0%,16.078432%,42.745098%);fill-opacity:1;" d="M 150.011719 42.84375 L 149.871094 44.269531 L 148.90625 55.402344 L 148.804688 56.828125 L 146.300781 56.613281 L 146.441406 55.1875 L 146.851562 50.433594 L 144.425781 50.222656 L 144.019531 54.976562 L 143.914062 56.40625 L 141.390625 56.1875 L 141.53125 54.761719 L 142.496094 43.628906 L 142.601562 42.203125 L 145.121094 42.417969 L 144.976562 43.847656 L 144.621094 47.992188 L 147.046875 48.203125 L 147.40625 44.054688 L 147.507812 42.625 Z M 150.011719 42.84375 "/>
<path style=" stroke:none;fill-rule:nonzero;fill:rgb(0%,16.078432%,42.745098%);fill-opacity:1;" d="M 154.824219 43.382812 L 154.648438 44.804688 L 153.4375 55.902344 L 153.300781 57.332031 L 150.785156 57.058594 L 150.960938 55.632812 L 152.167969 44.535156 L 152.304688 43.109375 Z M 154.824219 43.382812 "/>
<path style=" stroke:none;fill-rule:nonzero;fill:rgb(0%,16.078432%,42.745098%);fill-opacity:1;" d="M 155.144531 56.082031 L 156.574219 45.011719 L 156.738281 43.589844 L 160.238281 44.042969 C 163.351562 44.441406 163.871094 46.390625 163.574219 48.6875 L 163.570312 48.726562 C 163.273438 51.019531 162.273438 52.769531 159.167969 52.367188 L 158.15625 52.238281 L 157.617188 56.402344 L 157.453125 57.824219 L 154.945312 57.5 L 155.144531 56.085938 Z M 159.132812 50.148438 C 160.472656 50.324219 160.875 49.503906 161.019531 48.394531 L 161.023438 48.355469 C 161.167969 47.246094 160.988281 46.351562 159.644531 46.179688 L 158.945312 46.089844 L 158.429688 50.054688 Z M 159.132812 50.148438 "/>
<path style=" stroke:none;fill-rule:nonzero;fill:rgb(0%,16.078432%,42.745098%);fill-opacity:1;" d="M 80.3125 36.726562 L 75.878906 37.070312 L 78.375 12.539062 L 84.261719 12.082031 L 90.5 35.941406 L 86.132812 36.277344 L 84.9375 31.398438 L 80.707031 31.726562 Z M 81.015625 27.785156 L 84.027344 27.550781 L 82.523438 21.269531 C 82.265625 20.132812 81.976562 18.589844 81.84375 17.746094 L 81.636719 17.761719 C 81.671875 18.613281 81.585938 20.1875 81.507812 21.347656 Z M 81.015625 27.785156 "/>
<path style=" stroke:none;fill-rule:nonzero;fill:rgb(0%,16.078432%,42.745098%);fill-opacity:1;" d="M 94.898438 29.0625 C 95.390625 31.28125 96.4375 32.09375 97.894531 32.039062 C 99.351562 31.984375 100.101562 31.105469 100.050781 29.855469 C 100.003906 28.5 99.074219 27.242188 97.089844 25.890625 L 94.792969 24.347656 C 92.039062 22.480469 90.800781 20.21875 90.707031 17.675781 C 90.570312 13.914062 93.046875 11.171875 97.046875 11.027344 C 100.742188 10.886719 102.960938 13.046875 103.644531 16.824219 L 99.425781 17.558594 C 99.128906 15.9375 98.417969 15.015625 97.0625 15.066406 C 95.777344 15.113281 95.0625 16.054688 95.109375 17.308594 C 95.164062 18.835938 96.289062 19.878906 98.097656 21.101562 L 100.363281 22.613281 C 102.976562 24.382812 104.347656 26.710938 104.449219 29.453125 C 104.597656 33.351562 102.078125 35.925781 98.007812 36.074219 C 93.976562 36.222656 91.445312 33.871094 90.714844 29.792969 Z M 94.898438 29.0625 "/>
<path style=" stroke:none;fill-rule:nonzero;fill:rgb(0%,16.078432%,42.745098%);fill-opacity:1;" d="M 110.242188 24.691406 L 110.261719 31.613281 L 117.054688 31.59375 L 117.066406 35.394531 L 105.929688 35.433594 L 105.957031 32.953125 L 105.894531 13.636719 L 105.851562 11.160156 L 116.851562 11.121094 L 116.863281 14.925781 L 110.210938 14.945312 L 110.230469 20.820312 L 115.457031 20.800781 L 115.46875 24.671875 Z M 110.242188 24.691406 "/>
<path style=" stroke:none;fill-rule:nonzero;fill:rgb(0%,16.078432%,42.745098%);fill-opacity:1;" d="M 122.410156 35.519531 L 117.972656 35.375 L 123.121094 11.28125 L 129.023438 11.472656 L 132.613281 35.847656 L 128.242188 35.707031 L 127.585938 30.734375 L 123.351562 30.597656 L 122.40625 35.519531 Z M 124.085938 26.71875 L 127.101562 26.816406 L 126.292969 20.410156 C 126.160156 19.25 126.039062 17.6875 126 16.835938 L 125.800781 16.832031 C 125.738281 17.679688 125.480469 19.230469 125.277344 20.378906 Z M 124.085938 26.71875 "/>
<path style=" stroke:none;fill-rule:nonzero;fill:rgb(0%,16.078432%,42.745098%);fill-opacity:1;" d="M 140.207031 12.050781 L 143.769531 23.167969 C 144.1875 24.460938 144.390625 25.359375 144.566406 26.222656 L 144.703125 26.234375 C 144.699219 25.351562 144.695312 24.023438 144.765625 23.074219 L 145.375 14.917969 L 145.519531 12.445312 L 149.75 12.757812 L 149.535156 15.226562 L 148.105469 34.480469 L 147.957031 36.953125 L 144.035156 36.664062 L 140.101562 24.085938 C 139.648438 22.792969 139.445312 21.894531 139.234375 21.03125 L 139.101562 21.023438 C 139.101562 21.90625 139.105469 23.234375 139.035156 24.179688 L 138.328125 33.757812 L 138.175781 36.230469 L 133.945312 35.917969 L 134.160156 33.449219 L 135.589844 14.195312 L 135.738281 11.722656 L 140.207031 12.054688 Z M 140.207031 12.050781 "/>
<path style=" stroke:none;fill-rule:nonzero;fill:rgb(0%,16.078432%,42.745098%);fill-opacity:1;" d="M 130.890625 168.722656 L 130.890625 171.605469 L 130.894531 171.988281 L 130.347656 171.988281 L 130.351562 171.605469 L 130.351562 168.722656 L 129.6875 168.722656 L 129.6875 168.246094 L 131.554688 168.246094 L 131.554688 168.722656 Z M 130.890625 168.722656 "/>
<path style=" stroke:none;fill-rule:nonzero;fill:rgb(0%,16.078432%,42.745098%);fill-opacity:1;" d="M 131.921875 171.605469 L 131.921875 168.628906 L 131.917969 168.246094 L 132.648438 168.246094 L 133.117188 170.398438 C 133.144531 170.535156 133.171875 170.738281 133.183594 170.875 L 133.203125 170.875 C 133.214844 170.738281 133.238281 170.535156 133.269531 170.398438 L 133.730469 168.246094 L 134.460938 168.246094 L 134.453125 168.628906 L 134.453125 171.605469 L 134.460938 171.988281 L 133.960938 171.988281 L 133.96875 171.605469 L 133.96875 169.621094 C 133.96875 169.476562 133.984375 169.273438 133.988281 169.140625 L 133.96875 169.140625 C 133.949219 169.269531 133.921875 169.46875 133.890625 169.609375 L 133.386719 171.988281 L 132.984375 171.988281 L 132.488281 169.609375 C 132.457031 169.46875 132.421875 169.269531 132.40625 169.140625 L 132.386719 169.140625 C 132.394531 169.269531 132.402344 169.476562 132.402344 169.621094 L 132.402344 171.605469 L 132.410156 171.988281 L 131.917969 171.988281 Z M 131.921875 171.605469 "/>
<path style=" stroke:none;fill-rule:nonzero;fill:rgb(0%,16.078432%,42.745098%);fill-opacity:1;" d="M 153.035156 77.609375 C 151.707031 74.25 148.582031 72.144531 144.246094 71.675781 C 140.003906 71.214844 136.867188 73.089844 134.859375 75.214844 C 134.941406 73.597656 134.992188 71.960938 134.996094 70.3125 L 130.265625 70.3125 C 129.222656 98.792969 120.054688 125.191406 105.007812 147.269531 C 104.421875 153.679688 102.929688 157.0625 100.828125 159.269531 L 98.339844 159.269531 L 96.089844 171.988281 L 128.886719 171.988281 L 126.636719 159.269531 L 124.152344 159.269531 C 121.808594 156.8125 120.21875 152.890625 119.800781 144.949219 C 119.539062 139.933594 121.847656 132.71875 124.574219 124.167969 C 123.25 128.96875 123.554688 133.691406 126.539062 138.175781 C 127.105469 139.023438 128.253906 140.855469 128.535156 140.699219 C 128.535156 140.699219 129.308594 140.648438 128.542969 139.429688 C 126.929688 136.867188 126.679688 135.511719 126.589844 133.808594 C 126.449219 131.054688 126.851562 127.496094 128.488281 123.148438 C 130.710938 117.238281 135.222656 109.878906 143.773438 101.121094 L 144.300781 100.507812 C 151.96875 91.535156 155.300781 83.328125 153.03125 77.605469 Z M 141.761719 98.335938 L 141.234375 98.949219 C 134.875 106.390625 128.050781 114.375 125.199219 122.214844 C 126.882812 116.914062 128.65625 111.148438 130.050781 105.101562 C 131.5625 98.542969 133.546875 89.867188 134.476562 80.277344 C 136.605469 77.640625 139.960938 74.59375 143.886719 75.007812 C 147.015625 75.335938 149.046875 76.636719 149.921875 78.847656 C 150.585938 80.519531 151.738281 86.664062 141.761719 98.335938 Z M 105.0625 146.640625 C 117.335938 125.214844 124.351562 100.398438 124.351562 73.9375 C 124.351562 72.726562 124.332031 71.519531 124.304688 70.3125 L 122.171875 70.3125 L 122.171875 72.496094 L 122.164062 72.496094 C 122.164062 72.578125 122.164062 72.652344 122.164062 72.730469 C 122.164062 75.347656 121.488281 99.199219 96.902344 103.949219 C 95.453125 97.683594 93.507812 89.59375 92.621094 80.394531 L 92.554688 79.605469 L 92.519531 79.273438 L 92.300781 75.078125 C 92.257812 74.207031 92.222656 73.34375 92.199219 72.492188 L 92.199219 70.308594 L 89.984375 70.308594 C 89.988281 71.953125 90.039062 73.578125 90.125 75.191406 C 88.113281 73.074219 84.984375 71.214844 80.753906 71.671875 C 76.414062 72.140625 73.292969 74.25 71.960938 77.605469 C 69.691406 83.328125 73.023438 91.535156 80.691406 100.503906 L 81.21875 101.121094 C 106.503906 127.003906 96.460938 140.695312 96.460938 140.695312 C 101.125 135.625 101.960938 130.199219 100.5625 124.660156 C 103.21875 132.996094 105.433594 140.027344 105.175781 144.945312 C 105.144531 145.53125 105.105469 146.09375 105.0625 146.632812 Z M 83.761719 98.949219 L 83.234375 98.335938 C 73.257812 86.660156 74.410156 80.519531 75.074219 78.84375 C 75.949219 76.636719 77.980469 75.332031 81.113281 75.003906 C 85.023438 74.59375 88.371094 77.617188 90.5 80.246094 C 91.429688 89.851562 93.417969 98.535156 94.929688 105.101562 C 96.289062 111.003906 98.015625 116.636719 99.660156 121.832031 C 96.730469 114.117188 90.023438 106.265625 83.761719 98.949219 Z M 83.761719 98.949219 "/>
<path style=" stroke:none;fill-rule:nonzero;fill:rgb(0%,70.588237%,31.764707%);fill-opacity:1;" d="M 101.921875 91.117188 L 98.8125 91.117188 L 104.726562 82.933594 L 106.285156 85.074219 Z M 101.921875 91.117188 "/>
<path style=" stroke:none;fill-rule:nonzero;fill:rgb(100%,83.92157%,0%);fill-opacity:1;" d="M 111.660156 91.117188 L 104.566406 81.367188 L 106.125 79.21875 L 114.777344 91.117188 Z M 111.660156 91.117188 "/>
<path style=" stroke:none;fill-rule:nonzero;fill:rgb(0%,33.333334%,72.156864%);fill-opacity:1;" d="M 97.625 89.589844 L 96.660156 86.625 L 103.695312 76.929688 L 106.210938 77.75 Z M 97.625 89.589844 "/>
<path style=" stroke:none;fill-rule:nonzero;fill:rgb(0%,0%,0%);fill-opacity:1;" d="M 116.523438 90.421875 L 110.609375 82.253906 L 113.128906 81.4375 L 117.488281 87.457031 Z M 116.523438 90.421875 "/>
<path style=" stroke:none;fill-rule:nonzero;fill:rgb(0%,70.588237%,31.764707%);fill-opacity:1;" d="M 120.488281 78.210938 L 109.066406 81.921875 L 107.507812 79.78125 L 121.453125 75.246094 Z M 120.488281 78.210938 "/>
<path style=" stroke:none;fill-rule:nonzero;fill:rgb(99.215686%,9.411765%,7.450981%);fill-opacity:1;" d="M 111.777344 73.828125 L 118.757812 71.539062 L 121.273438 73.367188 L 111.777344 76.476562 Z M 111.777344 73.828125 "/>
<path style=" stroke:none;fill-rule:nonzero;fill:rgb(0%,0%,0%);fill-opacity:1;" d="M 108.464844 64.066406 L 110.984375 65.894531 L 110.984375 77.816406 L 108.464844 78.636719 Z M 108.464844 64.066406 "/>
<path style=" stroke:none;fill-rule:nonzero;fill:rgb(0%,33.333334%,72.156864%);fill-opacity:1;" d="M 104.074219 65.429688 L 106.59375 63.597656 L 106.59375 73.5625 L 104.074219 72.738281 Z M 104.074219 65.429688 "/>
<path style=" stroke:none;fill-rule:nonzero;fill:rgb(99.215686%,9.411765%,7.450981%);fill-opacity:1;" d="M 96.335938 71.050781 L 107.675781 74.746094 L 107.675781 77.394531 L 93.820312 72.878906 Z M 96.335938 71.050781 "/>
<path style=" stroke:none;fill-rule:nonzero;fill:rgb(100%,83.92157%,0%);fill-opacity:1;" d="M 102.238281 77.589844 L 100.679688 79.734375 L 93.683594 77.464844 L 92.722656 74.503906 Z M 102.238281 77.589844 "/>
<path style=" stroke:none;fill-rule:nonzero;fill:rgb(0%,17.254902%,37.254903%);fill-opacity:1;" d="M 102.683594 245.816406 C 102.683594 247.761719 101.691406 249.324219 99.917969 251.488281 L 98.183594 253.609375 L 102.566406 253.609375 L 102.566406 256.105469 L 94.949219 256.105469 L 94.949219 253.804688 L 97.441406 250.570312 C 99.097656 248.539062 99.917969 247.234375 99.917969 245.8125 L 99.917969 245.773438 C 99.917969 244.742188 99.566406 244.351562 98.902344 244.351562 C 98.0625 244.351562 97.753906 245.109375 97.753906 246.535156 L 97.753906 246.570312 L 95.042969 246.570312 L 95.042969 246.535156 C 95.042969 243.359375 96.621094 241.933594 99 241.933594 C 101.511719 241.933594 102.683594 243.511719 102.683594 245.773438 Z M 102.683594 245.816406 "/>
<path style=" stroke:none;fill-rule:nonzero;fill:rgb(0%,17.254902%,37.254903%);fill-opacity:1;" d="M 105.199219 255.441406 C 104.339844 254.683594 103.988281 253.511719 103.988281 250.824219 L 103.988281 247.453125 C 103.988281 244.761719 104.339844 243.613281 105.199219 242.832031 C 105.863281 242.246094 106.796875 241.9375 107.910156 241.9375 C 109.019531 241.9375 109.953125 242.246094 110.617188 242.832031 C 111.496094 243.613281 111.847656 244.761719 111.847656 247.453125 L 111.847656 250.824219 C 111.847656 253.511719 111.496094 254.664062 110.617188 255.441406 C 109.957031 256.046875 109.039062 256.339844 107.910156 256.339844 C 106.777344 256.339844 105.863281 256.046875 105.199219 255.441406 Z M 109.019531 251.464844 L 109.019531 246.808594 C 109.019531 245.445312 109.019531 244.390625 107.90625 244.390625 C 106.792969 244.390625 106.816406 245.445312 106.816406 246.808594 L 106.816406 251.464844 C 106.816406 252.832031 106.816406 253.882812 107.90625 253.882812 C 108.996094 253.882812 109.019531 252.832031 109.019531 251.464844 Z M 109.019531 251.464844 "/>
<path style=" stroke:none;fill-rule:nonzero;fill:rgb(0%,17.254902%,37.254903%);fill-opacity:1;" d="M 120.847656 245.816406 C 120.847656 247.761719 119.855469 249.324219 118.082031 251.488281 L 116.347656 253.609375 L 120.730469 253.609375 L 120.730469 256.105469 L 113.113281 256.105469 L 113.113281 253.804688 L 115.605469 250.570312 C 117.261719 248.539062 118.082031 247.234375 118.082031 245.8125 L 118.082031 245.773438 C 118.082031 244.742188 117.730469 244.351562 117.066406 244.351562 C 116.230469 244.351562 115.917969 245.109375 115.917969 246.535156 L 115.917969 246.570312 L 113.207031 246.570312 L 113.207031 246.535156 C 113.207031 243.359375 114.785156 241.933594 117.164062 241.933594 C 119.675781 241.933594 120.847656 243.511719 120.847656 245.773438 Z M 120.847656 245.816406 "/>
<path style=" stroke:none;fill-rule:nonzero;fill:rgb(0%,17.254902%,37.254903%);fill-opacity:1;" d="M 125.023438 248.230469 C 125.644531 247.664062 126.367188 247.394531 127.148438 247.394531 C 127.847656 247.394531 128.492188 247.605469 128.996094 248.054688 C 129.699219 248.699219 130.03125 249.75 130.050781 251.660156 C 130.050781 253.921875 129.601562 254.816406 128.785156 255.5 C 128.101562 256.066406 127.246094 256.339844 126.152344 256.339844 C 125.003906 256.339844 124.085938 256.027344 123.480469 255.519531 C 122.605469 254.800781 122.15625 253.550781 122.15625 250.804688 L 122.15625 247.46875 C 122.15625 244.761719 122.566406 243.476562 123.480469 242.734375 C 124.144531 242.1875 125.042969 241.933594 126.035156 241.933594 C 127.125 241.933594 128.003906 242.246094 128.609375 242.773438 C 129.3125 243.378906 129.777344 244.371094 129.777344 246.183594 L 129.777344 246.222656 L 127.027344 246.222656 L 127.027344 246.183594 C 127.027344 245.289062 127.027344 244.371094 126.035156 244.371094 C 125.042969 244.371094 125.023438 245.328125 125.023438 246.808594 Z M 125.023438 250.296875 L 125.023438 251.371094 C 125.023438 252.910156 125.023438 253.921875 126.113281 253.921875 C 127.203125 253.921875 127.203125 252.929688 127.203125 251.816406 C 127.203125 250.765625 127.183594 249.828125 126.132812 249.828125 C 125.742188 249.828125 125.3125 249.964844 125.019531 250.296875 Z M 125.023438 250.296875 "/>
<path style=" stroke:none;fill-rule:nonzero;fill:rgb(0%,17.254902%,37.254903%);fill-opacity:1;" d="M 58.664062 190.386719 L 48.351562 190.386719 L 48.351562 180.761719 L 42.347656 180.761719 L 42.347656 205.515625 L 48.351562 205.515625 L 48.351562 195.636719 L 58.664062 195.636719 L 58.664062 205.515625 L 64.664062 205.515625 L 64.664062 180.761719 L 58.664062 180.761719 Z M 58.664062 190.386719 "/>
<path style=" stroke:none;fill-rule:nonzero;fill:rgb(0%,17.254902%,37.254903%);fill-opacity:1;" d="M 76.695312 196.097656 L 72.476562 186.34375 L 66.179688 186.34375 L 73.609375 202.691406 L 69.648438 211.449219 L 75.980469 211.449219 L 86.933594 186.34375 L 80.605469 186.34375 Z M 76.695312 196.097656 "/>
<path style=" stroke:none;fill-rule:nonzero;fill:rgb(0%,17.254902%,37.254903%);fill-opacity:1;" d="M 101.023438 198.046875 C 100.675781 199.304688 99.570312 200.761719 97.585938 200.761719 C 95.316406 200.761719 94.21875 199.554688 94.21875 197.070312 L 94.21875 186.34375 L 88.324219 186.34375 L 88.324219 197.644531 C 88.324219 202.941406 90.929688 205.976562 95.476562 205.976562 C 97.835938 205.976562 99.820312 205.101562 101.023438 203.546875 L 101.023438 205.511719 L 106.917969 205.511719 L 106.917969 186.34375 L 101.023438 186.34375 Z M 101.023438 198.046875 "/>
<path style=" stroke:none;fill-rule:nonzero;fill:rgb(0%,17.254902%,37.254903%);fill-opacity:1;" d="M 121.457031 185.878906 C 119.09375 185.878906 117.109375 186.757812 115.902344 188.308594 L 115.902344 186.34375 L 110.007812 186.34375 L 110.007812 205.511719 L 115.902344 205.511719 L 115.902344 193.808594 C 116.25 192.550781 117.355469 191.09375 119.34375 191.09375 C 121.609375 191.09375 122.710938 192.300781 122.710938 194.785156 L 122.710938 205.515625 L 128.605469 205.515625 L 128.605469 194.214844 C 128.605469 188.917969 126 185.882812 121.457031 185.882812 Z M 121.457031 185.878906 "/>
<path style=" stroke:none;fill-rule:nonzero;fill:rgb(0%,17.254902%,37.254903%);fill-opacity:1;" d="M 145.292969 188.007812 C 143.84375 186.632812 141.957031 185.878906 139.921875 185.878906 C 134.445312 185.878906 130.769531 189.917969 130.769531 195.929688 C 130.769531 201.941406 134.449219 205.976562 139.921875 205.976562 C 141.945312 205.976562 143.832031 205.234375 145.292969 203.875 L 145.292969 205.511719 L 151.1875 205.511719 L 151.1875 179.691406 L 145.292969 179.691406 Z M 145.292969 193.367188 L 145.292969 198.527344 C 144.574219 199.886719 143.003906 200.765625 141.28125 200.765625 C 138.519531 200.765625 136.734375 198.867188 136.734375 195.929688 C 136.734375 192.992188 138.519531 191.09375 141.28125 191.09375 C 143.011719 191.09375 144.578125 191.984375 145.292969 193.367188 Z M 145.292969 193.367188 "/>
<path style=" stroke:none;fill-rule:nonzero;fill:rgb(0%,17.254902%,37.254903%);fill-opacity:1;" d="M 167.839844 188.011719 C 166.390625 186.632812 164.5 185.878906 162.46875 185.878906 C 156.992188 185.878906 153.3125 189.917969 153.3125 195.929688 C 153.3125 201.941406 156.992188 205.980469 162.46875 205.980469 C 164.488281 205.980469 166.378906 205.238281 167.839844 203.875 L 167.839844 205.511719 L 173.734375 205.511719 L 173.734375 186.34375 L 167.839844 186.34375 Z M 167.839844 198.527344 C 167.121094 199.886719 165.550781 200.761719 163.828125 200.761719 C 161.066406 200.761719 159.28125 198.867188 159.28125 195.929688 C 159.28125 192.988281 161.066406 191.09375 163.828125 191.09375 C 165.554688 191.09375 167.125 191.984375 167.839844 193.367188 Z M 167.839844 198.527344 "/>
<path style=" stroke:none;fill-rule:nonzero;fill:rgb(0%,17.254902%,37.254903%);fill-opacity:1;" d="M 182.542969 186.34375 L 176.648438 186.34375 L 176.648438 205.511719 L 182.542969 205.511719 Z M 182.542969 186.34375 "/>
<path style=" stroke:none;fill-rule:nonzero;fill:rgb(0%,17.254902%,37.254903%);fill-opacity:1;" d="M 182.542969 178.128906 L 176.648438 178.128906 L 176.648438 183.882812 L 182.542969 183.882812 Z M 182.542969 178.128906 "/>
</g>
</svg>
