<?xml version="1.0" encoding="UTF-8"?>
<svg id="Layer_1" data-name="Layer 1" xmlns="http://www.w3.org/2000/svg" viewBox="0 0 795.08 1060.87">
  <defs>
    <style>
      .cls-1 {
        fill: #8e7ba1;
      }

      .cls-1, .cls-2, .cls-3, .cls-4, .cls-5 {
        stroke-width: 0px;
      }

      .cls-2 {
        fill: #3f1b5c;
      }

      .cls-3 {
        fill: #3e1a5b;
      }

      .cls-4 {
        fill: #744b7f;
      }

      .cls-5 {
        fill: #fff;
      }
    </style>
  </defs>
  <path class="cls-5" d="M786.85,594.96c-9.5-46.5-26.85-91.43-53.03-137.35-6.49-11.38-13.42-22.44-19.4-31.91-.3-.47-.59-.94-.89-1.42-2.38-3.83-5.63-9.07-10.96-13.84l-17.29-15.49c-.48-2.53-1.1-5.02-1.86-7.47l28.46,8.3-25.97-42.89c-.48-1.35-1.36-3.55-2.99-5.91l-.66-1.62c-1.43-3.49-2.85-6.98-4.27-10.48-6.7-16.56-13.11-34.47-14.68-53.13-.53-6.32-3.11-12.07-7.67-17.07-7.23-7.95-15.44-14.22-23.23-19.96-13.97-10.29-29.11-19.11-45.01-26.22-8.22-3.68-16-6.88-23.49-9.68l1.08-9.98c3.69-34.08,9.12-70.37,23.67-104.86l27.41-64.94-57.43,40.86c-12.73,9.06-23.52,19.37-31.85,27.89-.03-.54-.07-1.07-.1-1.61-1.02-16.1-2.08-32.74-3.43-49.39l-3.81-46.79-95.75,108.24L358.69,1.05l-39.69,119.32-116.88-82.96,6.42,45.91c2.41,17.26,4.95,34.19,7.52,50.82-12.16-7.78-24.46-14.51-37.06-20.28l-70.42-32.29,46,62.34c22.31,30.24,36.1,65.85,47.67,99.83l5.31,15.6-25.37,8.75c-5.44,1.88-8.94,5.05-10.99,7.29-7.18,4.86-13.33,10.27-19.29,15.51-2.44,2.14-4.74,4.16-7.07,6.11-5.04,4.21-9.61,8.73-13.79,12.98-19.25,19.54-35.24,38.31-48.87,57.37-13.24,18.51-25.38,38.59-36.11,59.7-.16.31-.32.62-.49.93-1.51,2.83-4.04,7.57-4.63,14l-1.65,18.08,17.84,3.38c3.78.72,7.52,1.34,11.21,1.92-4.97,7.53-9.85,15.65-14.7,24.46-16.94,30.78-30.69,63.97-40.86,98.67-5.93,20.23-9.82,38.59-11.89,56.11-.72,6.09-1.34,12.66-.4,19.99l2.86,22.37,21.87-5.52c12.45-3.14,24.41-7.08,35.97-10.88,1.12-.37,2.24-.74,3.35-1.1-.8,7.08-1.28,13.61-1.64,19.36-3.38,54.62-.14,104.27,9.93,151.8,4.55,21.48,10.76,40.6,19,58.44,1.54,3.34,3.18,6.3,4.77,9.17.62,1.12,1.24,2.24,1.85,3.38l11.05,20.67,18.68-14.16c14.81-11.23,27.12-23.14,36.19-32.26,10.75-10.81,21.06-22.15,30.64-33.72,10.58-12.78,20.59-25.72,29.92-38.7.91,5.5,1.69,11.03,2.33,16.56,3.7,31.82,3.04,65.71-2.04,103.61-2.54,18.94-5.92,38.86-10.04,59.2-2.38,11.73,2.53,22.13,13.14,27.83,22.84,12.26,44.24,20.75,65.44,25.95,50.69,12.46,102.96,11.75,155.36-2.1,30.62-8.1,59.57-19.85,86.06-34.92l.66-.37c2.28-1.3,4.57-2.6,6.88-3.95l.14.55c1.58,6.32,3.17,12.48,4.85,19,.71,2.77,1.44,5.56,2.16,8.4l7.1,27.69,23.58-16.16c46.47-31.85,83.29-70.32,109.45-114.33,19.33-32.51,33.23-68.73,41.54-108.07l27.65,31.21,11.3-32.04.56-1.56c.42-1.18.75-2.11,1.05-3.05,8.06-25.03,14.16-50.92,18.14-76.95,7.46-48.75,6.33-97.52-3.37-144.96Z"/>
  <g>
    <path class="cls-3" d="M185.93,293.53c-10.1,28.19-8.81,55.66,5.52,82.17,4.47,8.27,10.49,15.37,18.13,20.97,2.92,2.14,5.95,4.12,9.18,6.35.79-2.17-.56-3.54-1.27-4.98-9.12-18.49-14.06-37.96-13.22-58.65.55-13.36,3.55-26.03,11.82-37.04,8.55-11.37,19.74-17.61,33.98-18.42,15.64-.89,29.33,4.75,42.38,12.56,1.64.98,3.25,2.02,5.2,2.59-10.13-24.01-25.87-41.49-53.62-45.43,2.47-2.76,5.14-3.98,7.83-5.22,16.9-7.76,33.98-14.98,51.65-20.98,16.75-5.69,33.89-9.3,51.07-13.12,30.92-6.86,62.23-7.78,93.68-7.05,5.87.14,11.73.74,17.59,1.11,4.22.27,7.65,2.45,11.04,4.64,19.04,12.31,35.02,27.99,49.66,45.15.78.91,1.67,1.73,2.54,2.56.1.1.38.01,1.02.01-.39-14.91-4.14-29-9.84-42.89,1.98-1.04,3.68.13,5.23.49,18.57,4.39,36.38,11.1,53.73,18.86,14.59,6.52,28.44,14.58,41.32,24.07,7.14,5.26,14.26,10.67,20.3,17.31,1.45,1.6,2.35,3.17,2.53,5.3,1.74,20.63,8.38,39.93,16.07,58.94,2.05,5.06,4.12,10.12,6.18,15.17-.32.66-.69,1.26-1.47,1.45-16.04-16.11-33.44-30.59-51.88-43.88-12.49-9.01-25.17-17.63-38.62-25.16-5.47-3.06-10.8-6.25-17.37-8.15-.99,5.55-1.82,10.87-2.91,16.14-1.56,7.56-3.73,14.92-7.4,21.79-1.35,2.53-2.62,3.04-5.12,1.23-10-7.23-19.98-14.5-30.25-21.34-8.75-5.82-17.81-11.21-26.89-16.52-6.45-3.78-13.16-7.13-19.77-10.65-2.93-1.56-5.9-1.95-9.33-1.42-20.3,3.15-39.97,8.69-59.04,16.13-14.88,5.8-29.1,13.2-42.31,22.27-6,4.12-11.64,8.75-17.84,13.45,4.82,7.18,12.98,10.54,18.08,17.42-24.81,8.56-44.31,23.99-61.21,44.51,8.35,1.6,15.81,3.04,23.28,4.45,1.19.22,2.42.26,3.62.45,6.17.98,6.1,1,6.67,7.22,1.12,12.26,5.76,23.27,13.28,32.8,13.21,16.75,30.12,27.88,51.24,32.49,8.79,1.92,17.58,2.66,26.52,2.72,15.22.11,30.4-.86,45.61-1.14,21.37-.4,42.55,1.1,62.98,8.14.53.18,1.17.09,2.58.18-3.26-3.95-5.97-7.56-9.01-10.85-10.03-10.85-20.08-21.69-30.66-32.03-5.95-5.82-12.55-10.87-18.38-16.79-2.15-2.18-4.82-2.92-7.62-3.38-8.82-1.44-17.68-2.22-26.65-1.82-13.19.58-26.4.71-39.23-3.08-11.92-3.51-22.79-9.35-33.28-15.9-2.05-1.28-3.98-2.76-6.54-4.55,3.85-4.42,8.4-7.98,12.96-11.36,14.66-10.9,30.94-18.32,48.91-21.92,1.44-.29,2.66-.25,4.1.19,17.11,5.3,33.18,12.89,48.56,21.97,3.12,1.85,6.06,4.05,8.91,6.31,1.99,1.58,3.44,1.42,5.18-.32,3.74-3.74,7.93-6.88,12.72-9.23,7.23-3.55,14.22-5.52,21.32-5.58-3.95,5.16-7.78,10.04-10.18,15.88-2.61,6.35-3.73,12.8-2.97,19.61.26,2.3,1.06,4.18,2.84,5.81,19.46,17.81,36.82,37.6,54.06,57.5.26.3.61.52.37.32,34.83-13.19,69.42-13.23,105.45-1.49-4.72-5.2-8.51-9.85-12.78-14.01-11.19-10.86-22.75-21.32-35.03-30.95-5.31-4.17-9.41-9.09-12.53-15.24-5.77-11.39-13.57-21.56-22.11-32.98,14.7,4.82,25.88,13,36.82,21.59,6.2-8.28,14.7-13.17,23.98-16.98,2.33-.96,4.27-.73,5.99,1.26,6.5,7.52,10.97,15.95,12.58,25.88.52,3.21-.25,5.51-2.69,7.47-2.21,1.77-4.32,3.68-6.53,5.46-1.6,1.29-1.69,2.47-.24,4.01,3.04,3.25,6.09,6.48,8.99,9.87,6.32,7.35,13.03,14.37,20.11,22.1,1.64-4.11,1.7-7.81,2.1-11.47.41-3.82,1.02-7.62,1.63-12.09,3.7,3.31,5.91,7.3,8.28,11.05,6.49,10.27,12.91,20.57,18.93,31.13,23.53,41.28,41.28,84.81,50.81,131.45,9.35,45.74,10.26,91.74,3.2,137.93-3.84,25.1-9.64,49.7-17.41,73.85-.37,1.14-.79,2.25-1.43,4.08-11.04-12.47-21.7-24.5-33.27-37.57-11.13,107.13-60.62,190.29-149.11,250.96-2.41-9.38-4.74-18.32-6.99-27.28-2.26-9.03-4.43-18.09-6.6-27-1.22-.66-2.1-.21-2.9.45-8.45,7.02-18,12.41-27.46,17.8-25.6,14.57-52.7,25.41-81.28,32.97-48.43,12.81-96.89,13.96-145.47,2.02-21.27-5.23-41.41-13.78-60.75-24.15-2.85-1.53-3.61-3.19-3-6.23,4.07-20.06,7.54-40.23,10.26-60.52,4.84-36.11,6.31-72.28,2.08-108.58-2.23-19.17-5.92-38.01-11.11-56.58-.52-1.86-1.18-3.68-2.08-6.44-2.09,3-3.77,5.22-5.26,7.57-14.89,23.46-31.37,45.77-49.08,67.15-9.3,11.23-19.12,22.02-29.42,32.37-10.57,10.63-21.47,20.85-34.1,30.43-2.07-3.87-4.3-7.59-6.11-11.5-8.01-17.36-13.64-35.52-17.59-54.2-10.24-48.34-12.58-97.23-9.53-146.43,1-16.17,2.76-32.3,7.02-49.07-23.75,5.99-45.96,15.11-69.56,21.06-.67-5.24-.15-10.22.43-15.11,2.12-17.94,6.14-35.5,11.22-52.83,9.66-32.96,22.63-64.57,39.19-94.65,8.6-15.63,18.19-30.66,29.62-44.44.89-1.07,2.06-1.98,2.55-4.21-13.96-2.91-28.17-4.32-42.47-7.03.27-2.92,1.82-5.3,3.03-7.68,10.11-19.89,21.55-38.96,34.55-57.12,14.07-19.67,29.91-37.78,46.85-54.97,3.98-4.04,8.03-8.04,12.38-11.67,8.84-7.39,17.07-15.56,26.86-21.78,1.18.43,1.24,1.49,1.43,2.49ZM612.75,555.29c-.07,0-.14,0-.21,0,0-7.1,0-14.2,0-21.3,0-7.04.04-7.17-6.48-9.65-13.93-5.31-26.65-12.93-38.36-21.91-4.53-3.47-8.27-4.13-13.14-2.82-1.17.32-2.36.6-3.52.97-20.75,6.51-40.18,15.76-58.63,27.33-14.43,9.06-28.27,18.85-41.61,29.39-3.46,2.74-3.6,2.81-1.57,6.83,4.2,8.31,8.59,16.53,12.87,24.81,9.31,17.98,18.65,35.94,27.85,53.97,1.38,2.71,3.14,3.72,6.14,3.8,11.59.29,22.57-2.42,33.04-6.96,21.31-9.23,40.36-22.24,58.54-36.49,7.63-5.98,15.39-11.87,22.5-18.53,1.78-1.67,2.67-3.26,2.63-5.73-.14-7.9-.05-15.81-.05-23.72ZM612.98,770.43c8.62-4.65,14.48-10.86,19.96-17.24,15.88-18.5,25.55-40.17,31.01-63.8.62-2.7,1.2-5.43.39-8.37-3.79-13.83-9.88-26.48-18.48-37.96-1.89-2.51-3.93-3.61-7.14-3.47-10.93.47-21.87.7-32.8.95-2.09.05-3.86.45-5.58,1.82-8.87,7.05-17.7,14.13-27.05,20.59-15.02,10.39-30.32,20.09-48.16,24.98-3.4.93-6.78,1.9-10.26,2.88,8.61,16.76,17.08,33.1,25.39,49.53,1.32,2.61,2.95,2.83,5.39,2.18,9.04-2.41,17.36-6.6,25.91-10.23,9.18-3.9,17.24-9.71,25.47-15.24,3.17-2.13,4.95-5.79,8.91-7.87,5.23,20,7.5,40,7.05,61.25ZM681.8,501.19c-11.52,8.63-21.83,17.47-33.67,24.19-3.16,1.79-4.52,4.42-4.36,8.46.44,11.33.26,22.68.36,34.03.04,5.26-1.08,10.95.56,15.67,1.8,5.16,6.9,8.81,10.63,13.06,8.95,10.19,17.51,20.69,23.68,32.91,1.62,3.22,3.4,6.35,5.24,9.76,4.55-7.78,7.27-15.82,9.3-24.09,5.46-22.18,5.26-44.54,1.64-66.94-2.59-16.01-6.79-31.57-13.37-47.03Z"/>
    <path class="cls-2" d="M221.16,237.79c-12.75-37.43-27.05-73.47-50.51-105.26,26.17,12,49.81,27.84,72.81,47.44-5.33-33.33-10.44-65.34-15.13-98.92,34.17,24.25,67.34,47.8,101.11,71.76,11.51-34.61,22.91-68.88,34.56-103.91,18.99,31.32,37.56,61.93,56.66,93.43,27.5-31.08,54.64-61.77,82.64-93.42,2.71,33.27,4.15,65.64,6.92,99.45,9.76-12,18.45-23.23,28.32-33.48,9.79-10.16,19.94-19.83,31.68-28.19-14.89,35.27-21.01,72.43-25.13,110.48-12.26-3.07-24.11-5.44-35.85-8.2-9.7-2.28-19.51-3.57-29.35-4.75-21.78-2.6-43.67-3.28-65.58-2.48-18.85.68-37.67,2.15-56.18,5.9-16.25,3.29-32.58,6.46-48.42,11.46-22,6.95-43.46,15.39-64.13,25.63-7.95,3.94-15.89,8.02-24.42,13.06Z"/>
    <path class="cls-4" d="M185.93,281.53c-.19-1-.25-2.06-1.43-2.49,1.15-1.28,2.07-2.82,4.18-3.55-.16,2.59-1.36,4.36-2.76,6.04Z"/>
    <path class="cls-1" d="M664.14,347.5c.78-.19,1.15-.8,1.47-1.45,1.55.97,1.34,2.68,2.53,4.65-2.44-.71-3.44-1.69-4-3.19Z"/>
  </g>
</svg>